<svg version="1.0" xmlns="http://www.w3.org/2000/svg" width="11378.667" height="11378.667" viewBox="0 0 8534 8534"><path d="M4354.3 1272.1c-161.5 6.2-310.5 56-434.5 145l-5.7 4.1-14.8-1.6c-28.1-3-38.9-3.7-70.3-4.3-89.4-1.7-166.9 11.5-243 41.4-19.8 7.8-53.6 24.1-72.1 34.8-176.3 102.3-291.9 298.3-332.3 563.5-35.6 233.9-9.1 519.5 76 819.2l5.6 19.6-9.6 9.3c-36.6 34.9-58.5 83.2-67.3 147.9-2.3 16.9-2.6 71.6-.5 90.5 4.5 40.8 15.8 87.9 28.7 120.2 21.4 53.1 59.9 103.6 113.5 148.5 19 16 50 37.4 70.5 48.7 20.5 11.3 18.7 9.6 21.4 19.7 36.2 134.5 99.3 272.2 174.4 380.4 126.1 181.6 291.9 306.9 475.9 359.4 67.4 19.3 129.2 27.9 199.3 28 34.2 0 53.6-1.1 83.5-4.5 157.1-18.2 303.5-86.1 434-201.4 18.3-16.2 61.6-59.5 78.5-78.5 92.2-104 165.7-228.3 218-368.5 8.5-22.9 24-68.9 29.5-87.8 1.7-5.8 2.7-7.7 4.1-7.7.9 0 28.2 3.9 60.6 8.6 64.6 9.4 67.4 9.6 83.8 5.4 26.1-6.6 49.4-26.5 59.6-50.8 3-7.2 113.4-411.3 114.9-420.9 4.9-30-8.2-63-32.7-82.2-8-6.3-31.4-18.4-94.8-48.8-14.3-6.9-26.4-12.9-26.8-13.3-.5-.4 1.8-9.1 5.1-19.1 55.1-167.4 85.3-324.3 92.3-478.9 1.5-32.9.6-115.6-1.5-145.5-18.6-259.2-106.4-476.7-263.5-653-14.9-16.7-57.9-59.7-74.6-74.6-162.4-144.7-364.6-232.6-576-250.4-36.8-3.1-72.1-3.9-109.2-2.4zM3962.5 1794c7 26.7 27.7 105.6 46 175.5 18.3 69.8 40 152.4 48 183.5 9.6 36.9 15.6 58.2 17.3 61.3 2.7 4.9 7 8.9 13.2 12.3 3 1.6 5.6 1.9 19.5 1.8 8.8 0 30.4-.8 48-1.7 157.1-8.2 298.1-7.3 412.7 2.8 193.9 17 321.5 59.1 391.1 128.8 38.2 38.3 60.4 85.2 70.1 148.1 3.9 24.8 5.6 48.1 6.3 84.1.4 27.3-1 117.2-2 118.1-.4.4-65.5 5-110.7 7.9-350.5 21.9-766.5 25.2-1140 9-99.7-4.3-271.2-14.7-273.3-16.5-1.8-1.5 2.2-74.9 5.9-109 25.2-236.1 131.6-343.8 352.4-357 10.5-.6 20.4-1.7 23-2.6 5-1.6 10.9-5.7 14-9.7 5.7-7.2 5.8-7.7 11-75.4 2.7-35.1 6.3-80.9 8-101.8 7.4-91.5 22.1-274.6 23.5-291.3.8-10.1 1.5-18.9 1.6-19.5.1-3 2.7 6.1 14.4 51.3zm318 1047.5c9.4 2.4 18.1 7.2 25.2 13.8 7.5 7 11.9 13.4 15.3 22.2 2.3 5.7 2.4 7.6 3.1 41.5.9 44.2 3.2 62.6 11.4 90.1 30.6 102.1 118 180.4 225.5 201.9 29.7 5.9 31.1 6 151.8 6 117.4 0 122.5-.2 151.7-5.1 82.2-13.8 160.7-56.4 214.5-116.4 5.7-6.3 10.4-11.4 10.6-11.2.7.7-32.6 139.3-52.6 218.2-18.7 74.1-43.9 168.1-47 175.3-.8 1.7-6.7 5.1-22.8 12.9-71.4 34.6-132.3 61.5-191.9 84.7l-22.2 8.6-14.3-14.3c-16.8-16.7-28.1-25.1-46.3-34.2-14.5-7.2-28.8-12.3-44.5-15.7-9.3-2-13.3-2.2-34.5-2.2-20.7 0-25.3.2-33.5 2.1-19.7 4.3-166.9 45.6-176.9 49.6-21.8 8.6-40.9 21.4-58.6 39.2-34 34.1-51.9 79.9-50.2 128.5 1 27.7 6.1 48.2 18.2 72.5 8.4 16.9 16.6 28.9 28.5 41.7 40.6 43.8 104 64 162.5 51.9 13.6-2.8 164-44.6 173.3-48.1 58.8-22.5 100.7-75.3 110-138.4l1.7-12 4.5-1.7c46.1-18 93.7-37.7 124.3-51.3 3.1-1.4 5.7-2.3 5.7-2.1 0 1.1-15.5 31.3-23.7 46.3-35.7 65.4-76.7 124.5-122.9 177.2-14.8 17-51.9 54.6-68.4 69.4-166 149.4-366.2 208-564.5 165-88.9-19.2-177.1-60.4-255.5-119.2-31-23.3-56.5-45.6-86.5-75.6-97.4-97.6-175.2-223-229-369.1-13.5-36.6-27-80.2-37.9-122.3-6.6-25.5-9.2-30.8-19.6-41.3-7.9-8-11.1-10.1-25-15.9-64.3-27.1-130.8-87.7-156-142.3-10.7-23.2-21.2-67-24-100.2-4.9-58.9 8.7-111.7 33.9-130.5l5.3-4h37.5l1.8 4.7c2.9 7.8 13 28.7 18.6 38.6 16.1 28.4 34.8 52.8 59.3 77.3 31 31 64 54.3 102.8 72.8 28.2 13.4 59.6 23.8 89.4 29.5 34.9 6.8 27.7 6.4 153.9 6.8 78.3.3 118.7.1 126.5-.7 130-12.3 236-103.1 263.5-225.5 4.8-21.6 5.6-30.2 6.4-68.5.7-33.4 1-37.1 2.9-43.1 5.7-17.4 20.9-31.7 39.5-37 7.8-2.2 21.4-2.4 29.2-.4zm-558 1570.9c-2.7.8-25.2 8.9-50 18.1-273.5 101.3-665.2 244-967.5 352.5-29.4 10.6-64.3 23.3-77.5 28.2-321 120.4-520.9 259.4-627.2 436.3-49.4 82.1-79.5 171.3-93.7 277.5-10.1 75.3-12.1 167.2-6 274 4.1 72.4 98.5 1410.1 99.9 1416 5.2 22.2 24.3 41.2 46.5 46.4 5.8 1.4 238.3 1.6 2220 1.6h2213.5l7.5-2.1c11.3-3.1 18.5-7.4 27.6-16.4 6.6-6.6 8.9-9.7 12.2-16.6 2.2-4.6 4.5-10.5 5.1-13 .8-3.7 92.5-1303.1 98.5-1396.9 3.5-54.8 4.1-72.3 4.1-134 0-63-.6-81.2-4.1-119-17.2-188.9-80.5-329.6-203.4-452-113.3-112.8-279.4-209.6-510.7-297.4-13.6-5.2-76.1-27.9-138.8-50.4-322.5-116.1-654.2-237-899-327.8-35.2-13-66.5-24.3-69.5-25-7.4-1.8-22.2-1.7-29.5.1-3.3.9-120.2 52.2-259.8 114.2l-253.8 112.5-3.7-1.4c-2-.8-115.5-51.1-252.2-111.8-136.7-60.6-251-111.2-254-112.3-7.2-2.6-27.2-3.3-34.5-1.3zm221 221.1c110 48.8 201.1 89.3 202.4 89.9 2.2 1.2-10.3 11.7-254 213.4-140.9 116.7-256.6 211.9-257 211.5-1.2-1.4-177.1-499.4-176.6-500 .4-.3 62.8-24.5 138.9-53.7l138.3-53.2 4 1.7c2.2.9 94 41.6 204 90.4zm994.5-38.1c75 28.9 136.6 52.9 136.8 53.4.3 1-175.6 498.3-176.7 499.4-.3.4-116-94.7-257-211.4l-256.3-212.2 3.9-1.9c2.1-1 94.9-42.2 206.3-91.6 157.8-70 202.9-89.6 204.5-88.9 1.1.4 63.4 24.4 138.5 53.2zM4084 5131c51.4 75.3 82.5 121.8 82.5 123.2-.1 3.4-169.9 913.8-170.5 913.8-1.1-.1-316.2-892.2-315.4-893 2.4-2.4 320-265 320.4-264.9.3 0 37.6 54.4 83 120.9zm608 11c86.6 71.6 158.4 131.1 159.4 132.1 1.9 1.8-.9 9.9-156 447.8-86.8 245.3-158.2 445.7-158.5 445.3-.3-.4-38.9-206.3-85.8-457.5l-85.1-456.9 2.9-4.1c23-33.9 155.6-227.9 158.8-232.5 3.1-4.3 4.8-6 5.6-5.4.7.5 72.1 59.5 158.7 131.2z" fill="#fff"/></svg>