<svg xmlns="http://www.w3.org/2000/svg" width="200" viewBox="0 0 150 37.5" height="50" version="1.0"><path d="M3.99 26.26V4.543h4.766c3.27 0 5.531.09 6.781.266 1.258.18 2.297.543 3.11 1.093.507.368.929.871 1.265 1.516.238.46.379.805.422 1.031.05.23.078.656.078 1.281 0 .918-.133 1.641-.39 2.172a4.89 4.89 0 01-.97 1.375c-.417.43-.851.762-1.296 1-.367.168-.559.278-.578.328 0 .024.066.07.203.141 1.008.418 1.75.813 2.218 1.188.477.367.875.886 1.188 1.562.207.406.344.746.406 1.016.063.261.094.68.094 1.25v.515c0 1.563-.434 2.836-1.297 3.813-.867.969-2.289 1.62-4.266 1.953-.773.148-2.921.219-6.453.219zM14.178 9.043a3.313 3.313 0 00-.97-.281c-.323-.051-.991-.086-2-.11l-2.296-.03v4.858l1.187-.109c1.395-.113 2.57-.426 3.532-.937.968-.52 1.5-1.118 1.593-1.797v-.22c0-.57-.351-1.03-1.046-1.374zm.359 8.562c-.48-.144-1.54-.218-3.172-.218H8.912v2.453c0 1.637.047 2.48.14 2.531h.282c.383 0 1.098-.016 2.14-.047 1.344-.07 2.305-.191 2.891-.36.594-.163 1.07-.452 1.438-.859.406-.457.609-.925.609-1.406 0-.195-.086-.531-.25-1-.168-.469-.711-.832-1.625-1.094zm13.32-6.86a9.705 9.705 0 012.125-.219h.14c1.782 0 3.259.414 4.438 1.235 1.188.812 1.985 2.015 2.39 3.61.22.835.33 1.773.33 2.812 0 .406-.044 1.093-.126 2.062a8.091 8.091 0 01-.812 2.844c-.68 1.344-1.68 2.273-3 2.781-1.325.5-2.528.75-3.61.75-.699 0-1.398-.07-2.094-.219-3.418-.738-5.125-3.265-5.125-7.578 0-.258.008-.523.032-.797.195-4.132 1.968-6.562 5.312-7.28zm3.39 4.297c-.366-.195-.698-.3-1-.313-.292-.007-.464-.015-.515-.015-.437 0-.797.074-1.078.219-.25.093-.523.296-.812.609-.282.312-.47.617-.563.906a5.32 5.32 0 00-.328 1.906c0 .313.023.641.078.985.113 1.012.399 1.746.86 2.203.456.45 1.117.687 1.984.719 1.945 0 2.922-1.239 2.922-3.72 0-.968-.121-1.722-.36-2.265a2.513 2.513 0 00-1.187-1.234zM53.22 26.26h-2.297c-1.156 0-1.84-.007-2.047-.03-.21-.02-.324-.118-.344-.297a7.68 7.68 0 01-.03-.532s-.012-.172-.032-.515c-.031-.114-.07-.172-.11-.172a.257.257 0 00-.156.062c-.074.055-.203.188-.39.407-.649.648-1.32 1.062-2.016 1.25-.7.18-1.305.265-1.812.265-.313 0-.625-.035-.938-.11-.96-.237-1.746-.644-2.36-1.218-.616-.582-1.116-1.453-1.5-2.61-.273-.769-.417-1.816-.437-3.14v-.64c0-2.602.54-4.657 1.625-6.157 1.082-1.508 2.707-2.273 4.875-2.297h.219c.77-.07 1.61.047 2.516.36l.437.14V3.058h4.797zm-5.375-11.406a4.093 4.093 0 00-1.188-.28 11.46 11.46 0 00-.687-.048c-.43 0-.75.063-.969.188-1.23.699-1.844 1.976-1.844 3.828.02 1.25.286 2.273.797 3.062.164.243.442.465.828.672.383.211.758.313 1.125.313.313 0 .672-.11 1.079-.328a4.443 4.443 0 001.046-.766l.391-.531v-5.86zm12.058-3.968c.508 1.375.82 2.183.937 2.422.22.5.47 1.093.75 1.78.29.688.52 1.231.688 1.626.176.398.285.656.328.781l.297.688 2.672-7.297h4.797l-4.157 10.687c-1.468 3.805-2.422 6.094-2.86 6.875-.429.781-.855 1.399-1.28 1.86-.73.695-1.778 1.101-3.14 1.218h-.36a17.4 17.4 0 01-1.72-.11c-.687-.062-1.062-.132-1.124-.202-.063-.074-.094-.184-.094-.328 0-.438.098-1.356.297-2.75l.078-.5h.781c.875 0 1.524-.164 1.954-.5.437-.344.867-1.004 1.296-1.985l.625-1.453-1.921-4.219-3.672-8.593zm16.893 0a6.44 6.44 0 011.547-.172c.27 0 .707.039 1.313.11.613.062 1.257.25 1.937.562l.578.297v-.829h4.516v8.157c0 4.93-.047 7.683-.14 8.265-.294 1.508-1.012 2.649-2.157 3.422-1.148.77-2.797 1.192-4.953 1.266-1.574.05-2.918-.102-4.031-.453-1.118-.344-1.934-.668-2.454-.97-.523-.304-.78-.491-.78-.562l1.343-3.109h.062c1.852.969 3.672 1.453 5.454 1.453 2.039 0 3.078-.762 3.109-2.281l.031-1.797-.828.578c-.992.625-2.133.938-3.422.938h-.547c-1.543-.094-2.757-.625-3.64-1.594-1.086-1.156-1.688-2.36-1.813-3.61-.117-1.25-.172-1.992-.172-2.234-.03-1.945.41-3.57 1.328-4.875.407-.57.93-1.086 1.579-1.547a7.097 7.097 0 012.14-1.015zm4.156 4.265c-.636-.289-1.214-.437-1.734-.437-.293 0-.558.039-.797.11-.719.218-1.215.679-1.484 1.374-.262.7-.39 1.324-.39 1.875 0 .43.054.871.171 1.328.164.73.477 1.297.938 1.703.457.407.976.61 1.562.61.332 0 .742-.117 1.234-.36.5-.238.907-.523 1.22-.859l.53-.578-.03-2.031c0-1.157-.048-1.828-.141-2.016-.094-.195-.454-.437-1.079-.719zm7.612 1.109v-5.374h4.765l.031 4.843c.02 2.211.047 3.602.079 4.172.039.563.125.965.25 1.203.289.575.632.891 1.03.954.395.062.641.093.735.093.55 0 1.067-.18 1.547-.547.363-.257.598-.5.703-.718.113-.22.188-.598.219-1.14.039-.54.062-1.017.062-1.423 0-.644-.027-1.426-.078-2.344a197.481 197.481 0 01-.031-3.25c0-.77.008-1.226.031-1.375l.11-.468h4.765v7.14c0 4.774-.027 7.34-.078 7.703l-.11.532h-4.609v-2.235l-.937.938c-.68.68-1.25 1.125-1.719 1.344-.469.21-1.125.312-1.969.312-.918 0-1.605-.11-2.062-.328-.7-.313-1.246-.75-1.64-1.313-.4-.562-.688-1.328-.876-2.296-.148-.72-.218-2.86-.218-6.422zm25.401 4.235V19.34h-1.797c-1.399.023-2.39.215-2.985.578-.586.355-.734.918-.453 1.687.27.606.817.946 1.64 1.016.833.074 1.696-.094 2.595-.5l1-.516zm-5.282-9.672c.782-.195 1.86-.297 3.235-.297 1.176 0 2.07.086 2.687.25a6.25 6.25 0 011.672.72c.938.624 1.55 1.62 1.844 2.983.289 1.356.422 3.887.39 7.594l-.03 4.016h-4.188l.078-.797-.188-.828-1 .64c-1.742 1.012-3.547 1.352-5.422 1.016-1.199-.219-2.101-.738-2.703-1.562-.605-.832-.859-1.938-.765-3.313.195-2.383 1.629-3.91 4.297-4.578 1.28-.344 2.703-.5 4.265-.469.594 0 .926-.07 1-.219.125-.164.086-.406-.11-.718-.335-.676-1.23-1-2.687-.97a9.324 9.324 0 00-4.093 1l-.75.36-.188-.218c-.187-.22-.484-.664-.89-1.344-.399-.688-.594-1.067-.594-1.14 0-.052.195-.22.593-.5.407-.29.848-.571 1.329-.845a11.217 11.217 0 012.218-.78zm19.359-.109c.29-.145.657-.219 1.094-.219.188 0 .399.012.64.031.24.024.563.106.97.25l-.313 3.39a10.2 10.2 0 00-1.672.157c-.555.094-.93.172-1.125.235-.187.054-.402.18-.64.375-.282.261-.559.648-.829 1.156-.261.5-.43.992-.5 1.469-.125.46-.187 1.93-.187 4.406v4.297h-4.766V10.886h4.625l.11 2.75.468-.797c.258-.457.586-.883.985-1.281.406-.395.785-.676 1.14-.844zm18.224 15.546h-2.297c-1.156 0-1.84-.007-2.047-.03-.21-.02-.324-.118-.343-.297a7.68 7.68 0 01-.032-.532l-.031-.515c-.031-.114-.07-.172-.11-.172a.257.257 0 00-.156.062c-.074.055-.203.188-.39.407-.649.648-1.32 1.062-2.016 1.25-.7.18-1.305.265-1.812.265-.313 0-.625-.035-.938-.11-.96-.237-1.746-.644-2.36-1.218-.616-.582-1.116-1.453-1.5-2.61-.273-.769-.417-1.816-.437-3.14v-.64c0-2.602.54-4.657 1.625-6.157 1.082-1.508 2.707-2.273 4.875-2.297h.219c.77-.07 1.61.047 2.516.36l.437.14V3.058h4.797zm-5.375-11.406a4.093 4.093 0 00-1.187-.28 11.46 11.46 0 00-.688-.048c-.43 0-.75.063-.969.188-1.23.699-1.843 1.976-1.843 3.828.02 1.25.285 2.273.796 3.062.164.243.442.465.829.672.382.211.757.313 1.125.313.312 0 .671-.11 1.078-.328a4.443 4.443 0 001.047-.766l.39-.531v-5.86zm0 0" fill="#112d4e"/></svg>