<svg width="200" height="44" fill="none" xmlns="http://www.w3.org/2000/svg"><path d="M5.32 35.014V6.056h6.354c4.36 0 7.375.12 9.042.354 1.677.24 3.063.724 4.146 1.458.677.49 1.24 1.162 1.687 2.021.318.615.506 1.073.563 1.375.068.308.104.875.104 1.709 0 1.223-.177 2.187-.52 2.895-.293.641-.725 1.25-1.293 1.834a7.105 7.105 0 01-1.729 1.333c-.49.224-.744.37-.77.438 0 .03.088.093.27.187 1.344.557 2.334 1.083 2.959 1.583.635.49 1.166 1.183 1.583 2.084.276.541.458.994.542 1.354.083.349.125.906.125 1.667v.687c0 2.083-.578 3.781-1.73 5.083-1.156 1.292-3.052 2.162-5.687 2.605-1.031.197-3.896.291-8.604.291H5.32zm13.584-22.958a4.418 4.418 0 00-1.292-.375c-.432-.068-1.323-.115-2.667-.146l-3.062-.042v6.48l1.583-.146c1.86-.151 3.427-.568 4.708-1.25 1.292-.693 2-1.49 2.125-2.396v-.292c0-.76-.468-1.375-1.395-1.833zm.479 11.417c-.641-.193-2.052-.292-4.23-.292h-3.27v3.27c0 2.183.062 3.308.187 3.376h.375c.51 0 1.464-.021 2.854-.063 1.792-.093 3.073-.255 3.855-.479.791-.219 1.427-.604 1.916-1.146.542-.61.813-1.234.813-1.875 0-.26-.115-.708-.334-1.333-.224-.625-.948-1.11-2.166-1.458zm17.76-9.146a12.94 12.94 0 012.833-.292h.188c2.375 0 4.343.552 5.916 1.646 1.584 1.083 2.646 2.687 3.188 4.812.292 1.115.437 2.365.437 3.75 0 .542-.057 1.459-.166 2.75-.115 1.282-.474 2.542-1.084 3.792-.906 1.792-2.24 3.031-4 3.708-1.765.667-3.37 1-4.812 1a13.34 13.34 0 01-2.792-.291c-4.557-.985-6.833-4.354-6.833-10.104 0-.344.01-.698.042-1.063.26-5.51 2.625-8.75 7.083-9.708zm4.52 5.729c-.489-.26-.931-.401-1.333-.417-.39-.01-.62-.02-.687-.02-.583 0-1.063.098-1.438.291-.333.125-.697.396-1.083.813-.375.416-.625.823-.75 1.208-.292.765-.437 1.614-.437 2.541 0 .417.03.855.104 1.313.15 1.349.531 2.328 1.146 2.938.609.599 1.49.916 2.645.958 2.594 0 3.896-1.651 3.896-4.959 0-1.291-.161-2.296-.479-3.02a3.35 3.35 0 00-1.583-1.646zM70.96 35.014h-3.063c-1.541 0-2.453-.01-2.729-.041-.28-.026-.432-.157-.458-.396-.031-.375-.042-.61-.042-.709 0 0-.015-.229-.041-.687-.042-.151-.094-.23-.146-.23a.342.342 0 00-.209.084c-.099.073-.27.25-.52.542-.865.864-1.76 1.416-2.688 1.666-.932.24-1.74.355-2.416.355a5.38 5.38 0 01-1.25-.146c-1.282-.318-2.329-.86-3.146-1.625-.823-.776-1.49-1.938-2-3.48-.365-1.025-.558-2.421-.584-4.187v-.854c0-3.469.72-6.208 2.167-8.208 1.443-2.01 3.61-3.032 6.5-3.063h.292c1.026-.094 2.145.063 3.354.48l.583.187V4.077h6.396v30.937zm-7.167-15.208c-.573-.219-1.099-.344-1.583-.375-.49-.042-.792-.063-.917-.063-.573 0-1 .084-1.291.25-1.641.933-2.459 2.636-2.459 5.105.026 1.666.38 3.03 1.063 4.083.219.323.588.62 1.104.896.51.281 1.01.416 1.5.416.417 0 .896-.145 1.438-.437a5.922 5.922 0 001.395-1.02l.521-.71V20.14l-.77-.333zm16.077-5.292c.677 1.834 1.094 2.912 1.25 3.23.292.666.625 1.458 1 2.374.386.917.693 1.641.917 2.167.234.531.38.875.438 1.042l.395.916 3.563-9.729h6.396l-5.542 14.25c-1.958 5.073-3.23 8.125-3.812 9.167-.573 1.042-1.141 1.864-1.709 2.48-.974.926-2.37 1.468-4.187 1.624h-.48c-.614 0-1.374-.052-2.291-.146-.917-.083-1.417-.177-1.5-.27-.083-.1-.125-.245-.125-.438 0-.583.13-1.807.396-3.667l.104-.666h1.042c1.166 0 2.03-.22 2.604-.667.583-.458 1.156-1.339 1.729-2.646l.833-1.937-2.562-5.625-4.896-11.459h6.437zm22.525 0a8.586 8.586 0 012.062-.229c.36 0 .943.052 1.75.146.818.083 1.678.333 2.584.75l.771.396v-1.104h6.02v10.874c0 6.573-.062 10.245-.187 11.021-.391 2.01-1.349 3.532-2.875 4.563-1.531 1.026-3.729 1.588-6.604 1.687-2.099.068-3.891-.135-5.375-.604-1.49-.458-2.578-.89-3.271-1.292-.698-.406-1.042-.656-1.042-.75l1.792-4.145h.083c2.469 1.291 4.896 1.937 7.271 1.937 2.719 0 4.104-1.015 4.146-3.042l.042-2.395-1.105.77c-1.322.834-2.843 1.25-4.562 1.25h-.729c-2.057-.125-3.677-.833-4.854-2.125-1.448-1.541-2.25-3.145-2.417-4.812-.156-1.667-.23-2.656-.23-2.98-.04-2.593.548-4.76 1.772-6.5.541-.76 1.24-1.447 2.104-2.062a9.469 9.469 0 012.854-1.354zm5.542 5.688c-.849-.386-1.62-.584-2.313-.584-.39 0-.745.053-1.062.146-.959.292-1.62.907-1.98 1.834-.348.932-.52 1.765-.52 2.5 0 .573.073 1.161.229 1.77.219.974.635 1.73 1.25 2.271.609.542 1.302.813 2.083.813.443 0 .99-.157 1.646-.48.667-.317 1.208-.697 1.625-1.145l.708-.771-.041-2.709c0-1.541-.063-2.437-.188-2.687-.125-.26-.604-.583-1.437-.958zm10.148 1.478v-7.166h6.354l.042 6.459c.026 2.948.062 4.802.104 5.562.052.75.166 1.287.333 1.604.385.766.844 1.188 1.375 1.271.526.083.854.125.979.125.735 0 1.422-.24 2.063-.73.484-.343.797-.666.937-.957.151-.292.25-.797.292-1.521.052-.719.083-1.354.083-1.896 0-.86-.036-1.901-.104-3.125-.031-1.86-.042-3.302-.042-4.333 0-1.026.011-1.636.042-1.834l.146-.625h6.354v9.521c0 6.365-.036 9.787-.104 10.27l-.146.71h-6.146v-2.98l-1.25 1.25c-.906.906-1.666 1.5-2.291 1.792-.625.281-1.5.416-2.625.416-1.224 0-2.141-.145-2.75-.437-.933-.417-1.662-1-2.188-1.75-.531-.75-.917-1.77-1.167-3.063-.198-.958-.291-3.812-.291-8.562zm33.868 5.647v-1.542h-2.396c-1.865.031-3.187.287-3.979.77-.781.475-.979 1.225-.604 2.25.359.808 1.088 1.261 2.187 1.355 1.11.099 2.261-.125 3.459-.667l1.333-.687v-1.48zm-7.042-12.896c1.042-.26 2.479-.396 4.313-.396 1.567 0 2.76.115 3.583.333a8.315 8.315 0 012.229.959c1.25.833 2.068 2.161 2.459 3.979.385 1.807.562 5.182.52 10.125l-.041 5.354h-5.584l.105-1.063-.25-1.104-1.334.854c-2.323 1.35-4.729 1.803-7.229 1.355-1.599-.292-2.802-.985-3.604-2.084-.807-1.109-1.146-2.583-1.021-4.416.26-3.177 2.172-5.214 5.729-6.105 1.709-.458 3.604-.666 5.688-.625.791 0 1.234-.093 1.333-.291.167-.219.115-.542-.146-.959-.448-.9-1.64-1.333-3.583-1.291-1.932.031-3.75.474-5.458 1.333l-1 .48-.25-.292c-.25-.292-.646-.886-1.188-1.792-.531-.917-.792-1.422-.792-1.52 0-.069.261-.293.792-.668.542-.385 1.13-.76 1.771-1.125a14.966 14.966 0 012.958-1.041zm25.812-.146c.386-.193.875-.292 1.459-.292.25 0 .531.016.854.042.317.031.75.14 1.291.333l-.416 4.521c-.683 0-1.427.073-2.229.209-.74.125-1.24.229-1.5.312-.25.073-.537.24-.855.5-.375.349-.744.865-1.104 1.542-.349.666-.573 1.323-.666 1.958-.167.615-.25 2.573-.25 5.875v5.73h-6.355v-20.5h6.167l.146 3.666.625-1.063a7.927 7.927 0 011.312-1.708c.542-.526 1.047-.901 1.521-1.125zm24.298 20.729h-3.062c-1.542 0-2.453-.01-2.729-.041-.282-.026-.433-.157-.459-.396a10.23 10.23 0 01-.041-.709s-.016-.229-.042-.687c-.042-.151-.094-.23-.146-.23a.342.342 0 00-.208.084c-.099.073-.271.25-.521.542-.865.864-1.76 1.416-2.687 1.666-.933.24-1.74.355-2.417.355-.417 0-.833-.047-1.25-.146-1.281-.318-2.328-.86-3.146-1.625-.823-.776-1.49-1.938-2-3.48-.365-1.025-.557-2.421-.583-4.187v-.854c0-3.469.718-6.208 2.166-8.208 1.443-2.01 3.61-3.032 6.5-3.063h.292c1.026-.094 2.146.063 3.354.48l.584.187V4.077h6.395v30.937zm-7.166-15.208c-.573-.219-1.099-.344-1.584-.375a15.303 15.303 0 00-.916-.063c-.573 0-1 .084-1.292.25-1.641.933-2.458 2.636-2.458 5.105.026 1.666.38 3.03 1.062 4.083.219.323.589.62 1.104.896.511.281 1.011.416 1.5.416.417 0 .896-.145 1.438-.437a5.925 5.925 0 001.396-1.02l.521-.71V20.14l-.771-.333z" fill="#fff"/></svg>