<svg viewBox="0 0 800 800" xmlns="http://www.w3.org/2000/svg" fill-rule="evenodd" clip-rule="evenodd" stroke-linejoin="round" stroke-miterlimit="2"><path fill="none" d="M797.258.844H-2.744v800.01h800.002z"/><path d="M4361.54 889.375c-182.76 0-331.14 148.385-331.14 331.145s148.38 331.14 331.14 331.14 331.14-148.38 331.14-331.14-148.38-331.145-331.14-331.145zm0 44.445c158.23 0 286.7 128.46 286.7 286.7 0 158.23-128.47 286.69-286.7 286.69s-286.7-128.46-286.7-286.69c0-158.24 128.47-286.7 286.7-286.7z" fill="url(#_Linear1)" transform="matrix(-1 0 0 1 4758.807 -819.667)"/><path d="M164.04 809.628v800.012c0 39.59 32.092 71.68 71.679 71.68h796.541c39.56 0 71.68-32.12 71.68-71.68 0-39.56-32.12-71.68-71.68-71.68H307.397V809.628c0-39.56-32.118-71.678-71.678-71.678-39.561 0-71.679 32.118-71.679 71.678z" fill="url(#_Linear2)" transform="scale(-.31003 .31003) rotate(45 -431.692 -1078.7)"/><path d="M531.811 1235.09h286.991c14.05 0 25.456-11.41 25.456-25.46s-11.406-25.45-25.456-25.45H531.811c-14.05 0-25.456 11.4-25.456 25.45 0 14.05 11.406 25.46 25.456 25.46z" fill="url(#_Linear3)" transform="matrix(-.87298 0 0 .87297 932.438 -655.82)"/><defs><linearGradient id="_Linear1" x1="0" y1="0" x2="1" y2="0" gradientUnits="userSpaceOnUse" gradientTransform="matrix(796.542 0 0 212.864 3965 1220.52)"><stop offset="0" stop-color="#7ac0e8"/><stop offset="1" stop-color="#5956ac"/></linearGradient><linearGradient id="_Linear2" x1="0" y1="0" x2="1" y2="0" gradientUnits="userSpaceOnUse" gradientTransform="matrix(1816.73975 -1816.73975 485.4974 485.4974 -259.917 2103.54)"><stop offset="0" stop-color="#7ac0e8"/><stop offset="1" stop-color="#5956ac"/></linearGradient><linearGradient id="_Linear3" x1="0" y1="0" x2="1" y2="0" gradientUnits="userSpaceOnUse" gradientTransform="matrix(912.446 0 0 243.837 158.812 1210.42)"><stop offset="0" stop-color="#7ac0e8"/><stop offset="1" stop-color="#5956ac"/></linearGradient></defs></svg>