<svg version="1.0" xmlns="http://www.w3.org/2000/svg" width="1732" height="1732" viewBox="0 0 1299 1299"><g fill="#112d4e"><path d="M783 456.6c-39.3 4.9-81.3 22.9-109.2 46.8-21.4 18.3-29.7 37.4-20.6 47.3 6.4 6.9 15.3 2.6 43.3-20.6 27.8-23.1 44.6-33.9 61-39.2 9.8-3.1 38.3-3.8 61.5-1.4 47.2 4.8 96.2 17.3 112.7 28.6l4.4 3.1 12.3-4.1c24.8-8.2 52.4-14.3 80.6-17.7 15.7-1.9 60.7-2.6 71-1.1 12.3 1.8 3-.5-21-5.2-84.5-16.7-166.7-29.4-225-34.6-17-1.5-63.9-2.8-71-1.9zm-639.2 47.5c-2.9 2.8-3 3.3-2.5 8.6 2 19 38 69.8 86.3 121.7 21.6 23.3 43.8 42.1 48.8 41.4 2.1-.3 2.1-.8 2.2-29.8.1-16.2.5-34.5.8-40.5l.6-11-8.7-4.5c-20.6-10.6-43-27.3-76.8-57-22-19.3-31-26.4-38-29.6-6.6-3.1-9.1-3-12.7.7z"/><path d="M1052.5 503c-69.8 4.1-139.1 26.5-204.4 65.9l-15.3 9.3-11.3 1.8c-28.9 4.7-51.3 4.6-63.1-.3-26.2-11-83-21.4-141.4-25.9-21.3-1.6-91.3-1.6-113 0-45.9 3.5-83.7 8.7-125.9 17.3-35 7.2-89.4 21.7-91.7 24.5-2.5 3.1-4.6 44.8-3.4 64.8 1.4 21.8 1.2 21 7.3 22.6 13 3.2 25.6 11.6 32 21.3 4.8 7.1 7 14.3 10.2 32.2 7.5 42.5 18.6 73.5 34.3 95.4 11.9 16.6 30.1 32.5 47.2 41.1 22.9 11.6 56.1 17.2 88.5 15 44.2-3 99.3-16.4 135.5-32.9 25.2-11.5 44.7-24.8 62.5-42.6 27.6-27.5 42-54.6 61.4-115.9l7.6-23.9 7-4.4c10.4-6.4 21.2-10.3 28.5-10.3 5.1 0 6.4.4 9.1 2.8 2.7 2.4 3.2 3.7 3.6 8.3 2.1 28.6 4.7 43.4 10.5 59.8 10.6 30 29.2 52.3 52.9 63.6 17.3 8.2 39.8 11.1 62.6 8.1 46.3-6.1 88.7-27.8 114.9-58.7 22.1-26 35-54.7 46.4-103.3 5.6-24.2 6.3-26.3 11.9-35.1 2.1-3.3 5.5-9.2 7.5-13 2-3.9 4.5-8.1 5.6-9.5 1.3-1.6 2.7-6.5 4-14 2.8-16.2 7.9-56.4 7.1-57.2-.9-1.1-22.2-4.6-34.1-5.7-16.4-1.5-39.2-2-54.5-1.1zm17.6 28c3.4.9 4 1.7 7.4 9.6 5.4 12.6 10.2 27.9 13.2 42.3 2.4 11.4 2.7 14.7 2.7 33.6 0 18-.3 22.4-2.2 31.2-7.7 35.2-27.4 67.1-57.5 92.9-19.2 16.5-39.1 28.5-56.7 34.4-51.1 17-85.6 11.3-103.8-16.9-9.6-14.7-13.1-29.2-13.9-56.1-.7-25.7 1.7-48.3 7.3-68 14.6-51.1 63.5-87.4 135.4-100.4 8-1.4 18.8-3 24-3.5 11.5-1.2 39.1-.6 44.1.9zM626 587c24.4 2.1 40.7 6.2 57 14.2 13.8 6.8 24.8 17.3 30.3 28.8s6.7 19.6 6.7 43.7c0 29.2-2.3 45.5-9.5 67.1-18.6 55.8-62.6 94-125.9 109.3-8.9 2.2-19.7 5-24.1 6.4-42.9 13-83.1 14.4-114.3 3.9-35.1-11.7-60.1-40.9-70.7-82.4-.9-3.6-2.9-9.9-4.5-14-9.4-24.9-10.2-57.1-1.8-78.5 11.4-29.2 32.8-50.2 68.3-67 27.1-12.9 57-20.7 105-27.5 34.7-4.8 59.8-6 83.5-4z"/><path d="M1027.5 535.7c-39.5 3.3-79.4 15.9-105.1 33.2-29.5 19.7-46.3 43.7-52.9 75.6-3.8 18.2-4.9 29.1-5 48.5 0 18.1 1.8 35.4 3.6 34.8.7-.2 60.3-63.7 170.1-181.1l11-11.7-8.8.2c-4.9.1-10.7.3-12.9.5zm20.1 7.6c-2.9 4.5-37.5 57.9-77 118.6-39.4 60.7-71.6 110.5-71.6 110.6 0 .2 2.8 1.3 6.3 2.4 8.2 2.9 24.7 4.7 31 3.5l4.8-.9 58-109.5c31.9-60.2 60.5-114.1 63.5-119.8 6.2-11.7 6.4-11.3-4.4-12.5l-5.3-.6-5.3 8.2zm22.1 3.3c-.8 1.6-28.6 53.9-61.6 116.3-33.1 62.4-59.9 113.6-59.7 113.8.8.8 21.9-4.8 32.3-8.6 19.8-7.3 41.1-21.8 60.4-41 17.8-17.7 29.4-34.8 37.4-54.9 13.4-33.9 13.6-69.6.5-109.2-2.3-6.8-4.9-13.9-5.9-15.9l-1.8-3.5-1.6 3zm-505.7 48c-65.7 7.1-112.9 20.8-144 41.5-11 7.3-25.8 21.6-32 30.8-5.4 8.1-10.3 18.7-13.2 28.7-2 6.9-2.3 10.1-2.3 25.4 0 19.1.4 21.4 6.5 40.5 2.1 6.6 5.2 16.6 6.9 22.2 3.8 12.3 11.2 27.3 18.2 36.7l5.1 6.9 3-3.1c1.7-1.6 50.9-54 109.3-116.4l106.1-113.3-3.5-.7c-6.1-1.2-47-.6-60.1.8zm-16.2 130.7c-46.7 71.8-84.8 131-84.8 131.5 0 2.4 30.9 5.1 43.1 3.8l6.5-.7 71.1-128.7c39.2-70.8 71.5-129.4 71.8-130.4.5-1.3-.6-1.9-6.7-3.3-4-.9-9.3-1.9-11.8-2.2l-4.5-.5-84.7 130.5zm108.8-114.5c-40.2 72-136.6 247.5-136.2 248 1 .9 23.2-3.8 35.3-7.4 6.1-1.8 15.6-4.3 21-5.5 24.6-5.3 53-17.5 71-30.4 18.7-13.6 37.7-36.3 47.3-56.7 12.4-26.5 17.7-55.1 16.5-88.8-1-27.5-4.3-36.7-17.5-50-7.4-7.5-17.6-13.8-27.9-17.5l-4-1.4-5.5 9.7zm-514.9-80.6c2.2 20.4 12.1 48.8 24.3 70.2 17.6 30.8 26.2 25.2 14.3-9.3-1.4-4.2-3.5-8.2-4.5-9-5.6-3.9-21.1-28.7-29.8-47.6-2.2-4.7-4.1-8.5-4.4-8.5-.2 0-.2 1.9.1 4.2z"/></g></svg>