<svg version="1.0" xmlns="http://www.w3.org/2000/svg" width="1733.333" height="1733.333" viewBox="0 0 1300 1300"><path d="M492.7 98c-9.9 2.5-19.8 10.4-23.6 19-2 4.5-2.1 5.9-2.1 162.2v157.7l-5.7 1.6c-27.9 8.1-49.1 32.8-53.3 62-.8 5.9-1 97-.8 339 .3 316.6.4 331.3 2.2 337 8.1 26.6 25.8 44.8 52.1 53.7l7 2.3 176 .3c158.2.2 176.8.1 184-1.3 29.3-5.9 51.6-27.5 58.6-57 1.9-8.1 1.9-13.9 1.7-343.1l-.3-334.9-2.3-7c-7.1-21.1-20.1-36.4-38.7-45.6-8.3-4.1-21.4-7.9-27.2-7.9H817v-53H717v52h-34v-52H582v52h-44V124.1l-2.2-5.8c-2.8-7.7-10.5-15.3-18.5-18.3-6.5-2.5-18.6-3.5-24.6-2zM837 652v143H459V509h378v143zM568 886v45h-91v-90h91v45zm125 0v45h-90v-90h90v45zm126 0v45h-90v-90h90v45zm-251 114v45h-91v-90h91v45zm125 0v45h-90v-90h90v45zm126 0v45h-90v-90h90v45zm-251 114v45h-91v-90h91v45zm125 0v45h-90v-90h90v45zm126 0v45h-90v-90h90v45z" fill="#112d4e"/></svg>