<svg version="1.0" xmlns="http://www.w3.org/2000/svg" width="1733.333" height="1733.333" viewBox="0 0 1300 1300"><g fill="#3f72af"><path d="M778.5 211.6c-31.5 3.6-51.1 9.2-75.5 21.4-18 9.1-37.8 22.9-48.5 33.9l-3.9 4.1 11.6 11.6 11.5 11.6 8.9-7.7c62.3-54 153.2-56.5 217.9-5.9 4.4 3.4 9.6 7.8 11.4 9.8 1.9 2 4 3.6 4.6 3.6.6 0 6.2-5.2 12.5-11.6l11.5-11.5-5.5-5c-34.1-31.1-74.8-49.3-119.9-53.9-9.6-.9-29.7-1.1-36.6-.4z"/><path d="M777.5 274.6c-30 4.5-56.1 16.5-78 35.9l-5 4.4 11.9 12 12 12 4.5-4.2c23.2-21.5 58.6-31.8 90.2-26.2 20.2 3.5 38.3 12.1 54 25.6l5.5 4.8 11.8-11.8 11.8-11.8-6.4-5.7c-17.7-16-40.5-27.4-65.8-33.1-7.3-1.6-39.4-2.9-46.5-1.9z"/><path d="M780.4 338.5c-4 .7-8.9 1.8-11 2.5-6.5 2.1-18.6 8.7-24.8 13.6l-5.8 4.6 11.7 11.8 11.8 11.8 6.2-4.3c9.1-6.2 15.1-8 26.5-8 11.6 0 19.9 2.6 27.9 8.6l5.4 4.1 11.6-11.7 11.6-11.6-4.9-4.5c-15.8-14.5-42.4-21.3-66.2-16.9zM750 504v81h-14v-59h-97v59h-14v-59h-97v59h-45v57h-60v204h60v349h396V585h-32V423h-97v81zm63.8-36.3l-.3 11.8h-30l-.3-11.8-.3-11.7h31.2l-.3 11.7zm.2 81.3v36h-31v-72h31v36zm-222 23v13h-30v-26h30v13zm111 0v13h-31v-26h31v13zm142.8 318.2l.2 271.8H517V618l164.3.2 164.2.3.3 271.7zM483 744v69h-27v-68.3c0-37.6.3-68.7.7-69 .3-.4 6.4-.7 13.5-.7H483v69z"/><path d="M556 751.5V846h250V657H556v94.5zm217 .5v61H589V691h184v61zM570 911.5V928h222v-33H570v16.5zm0 61V989h222v-33H570v16.5zm0 61.5v17h222v-34H570v17zm0 61.5v16.5h222v-33H570v16.5z"/></g></svg>