<?xml version="1.0" standalone="no"?>
<!DOCTYPE svg PUBLIC "-//W3C//DTD SVG 20010904//EN"
 "http://www.w3.org/TR/2001/REC-SVG-20010904/DTD/svg10.dtd">
<svg version="1.0" xmlns="http://www.w3.org/2000/svg"
 width="8534.000000pt" height="8534.000000pt" viewBox="0 0 8534.000000 8534.000000"
 preserveAspectRatio="xMidYMid meet">

<g transform="translate(0.000000,8534.000000) scale(0.100000,-0.100000)"
fill="#fff" stroke="none">
<path d="M43543 72619 c-1615 -62 -3105 -560 -4345 -1450 l-57 -41 -148 16
c-281 30 -389 37 -703 43 -894 17 -1669 -115 -2430 -414 -198 -78 -536 -241
-721 -348 -1763 -1023 -2919 -2983 -3323 -5635 -356 -2339 -91 -5195 760
-8192 l56 -196 -96 -93 c-366 -349 -585 -832 -673 -1479 -23 -169 -26 -716 -5
-905 45 -408 158 -879 287 -1202 214 -531 599 -1036 1135 -1485 190 -160 500
-374 705 -487 205 -113 187 -96 214 -197 362 -1345 993 -2722 1744 -3804 1261
-1816 2919 -3069 4759 -3594 674 -193 1292 -279 1993 -280 342 0 536 11 835
45 1571 182 3035 861 4340 2014 183 162 616 595 785 785 922 1040 1657 2283
2180 3685 85 229 240 689 295 878 17 58 27 77 41 77 9 0 282 -39 606 -86 646
-94 674 -96 838 -54 261 66 494 265 596 508 30 72 1134 4113 1149 4209 49 300
-82 630 -327 822 -80 63 -314 184 -948 488 -143 69 -264 129 -268 133 -5 4 18
91 51 191 551 1674 853 3243 923 4789 15 329 6 1156 -15 1455 -186 2592 -1064
4767 -2635 6530 -149 167 -579 597 -746 746 -1624 1447 -3646 2326 -5760 2504
-368 31 -721 39 -1092 24z m-3918 -5219 c70 -267 277 -1056 460 -1755 183
-698 400 -1524 480 -1835 96 -369 156 -582 173 -613 27 -49 70 -89 132 -123
30 -16 56 -19 195 -18 88 0 304 8 480 17 1571 82 2981 73 4127 -28 1939 -170
3215 -591 3911 -1288 382 -383 604 -852 701 -1481 39 -248 56 -481 63 -841 4
-273 -10 -1172 -20 -1181 -4 -4 -655 -50 -1107 -79 -3505 -219 -7665 -252
-11400 -90 -997 43 -2712 147 -2733 165 -18 15 22 749 59 1090 252 2361 1316
3438 3524 3570 105 6 204 17 230 26 50 16 109 57 140 97 57 72 58 77 110 754
27 351 63 809 80 1018 74 915 221 2746 235 2913 8 101 15 189 16 195 1 30 27
-61 144 -513z m3180 -10475 c94 -24 181 -72 252 -138 75 -70 119 -134 153
-222 23 -57 24 -76 31 -415 9 -442 32 -626 114 -901 306 -1021 1180 -1804
2255 -2019 297 -59 311 -60 1518 -60 1174 0 1225 2 1517 51 822 138 1607 564
2145 1164 57 63 104 114 106 112 7 -7 -326 -1393 -526 -2182 -187 -741 -439
-1681 -470 -1753 -8 -17 -67 -51 -228 -129 -714 -346 -1323 -615 -1919 -847
l-222 -86 -143 143 c-168 167 -281 251 -463 342 -145 72 -288 123 -445 157
-93 20 -133 22 -345 22 -207 0 -253 -2 -335 -21 -197 -43 -1669 -456 -1769
-496 -218 -86 -409 -214 -586 -392 -340 -341 -519 -799 -502 -1285 10 -277 61
-482 182 -725 84 -169 166 -289 285 -417 406 -438 1040 -640 1625 -519 136 28
1640 446 1733 481 588 225 1007 753 1100 1384 l17 120 45 17 c461 180 937 377
1243 513 31 14 57 23 57 21 0 -11 -155 -313 -237 -463 -357 -654 -767 -1245
-1229 -1772 -148 -170 -519 -546 -684 -694 -1660 -1494 -3662 -2080 -5645
-1650 -889 192 -1771 604 -2555 1192 -310 233 -565 456 -865 756 -974 976
-1752 2230 -2290 3691 -135 366 -270 802 -379 1223 -66 255 -92 308 -196 413
-79 80 -111 101 -250 159 -643 271 -1308 877 -1560 1423 -107 232 -212 670
-240 1002 -49 589 87 1117 339 1305 l53 40 188 0 187 0 18 -47 c29 -78 130
-287 186 -386 161 -284 348 -528 593 -773 310 -310 640 -543 1028 -728 282
-134 596 -238 894 -295 349 -68 277 -64 1539 -68 783 -3 1187 -1 1265 7 1300
123 2360 1031 2635 2255 48 216 56 302 64 685 7 334 10 371 29 431 57 174 209
317 395 370 78 22 214 24 292 4z"/>
<path d="M37225 41216 c-27 -8 -252 -89 -500 -181 -2735 -1013 -6652 -2440
-9675 -3525 -294 -106 -643 -233 -775 -282 -3210 -1204 -5209 -2594 -6272
-4363 -494 -821 -795 -1713 -937 -2775 -101 -753 -121 -1672 -60 -2740 41
-724 985 -14101 999 -14160 52 -222 243 -412 465 -464 58 -14 2383 -16 22200
-16 l22135 0 75 21 c113 31 185 74 276 164 66 66 89 97 122 166 22 46 45 105
51 130 8 37 925 13031 985 13969 35 548 41 723 41 1340 0 630 -6 812 -41 1190
-172 1889 -805 3296 -2034 4520 -1133 1128 -2794 2096 -5107 2974 -136 52
-761 279 -1388 504 -3225 1161 -6542 2370 -8990 3278 -352 130 -665 243 -695
250 -74 18 -222 17 -295 -1 -33 -9 -1202 -522 -2598 -1142 l-2538 -1125 -37
14 c-20 8 -1155 511 -2522 1118 -1367 606 -2510 1112 -2540 1123 -72 26 -272
33 -345 13z m2210 -2211 c1100 -488 2011 -893 2024 -899 22 -12 -103 -117
-2540 -2134 -1409 -1167 -2566 -2119 -2570 -2115 -12 14 -1771 4994 -1766
5000 4 3 628 245 1389 537 l1383 532 40 -17 c22 -9 940 -416 2040 -904z m9945
381 c750 -289 1366 -529 1368 -534 3 -10 -1756 -4983 -1767 -4994 -3 -4 -1160
947 -2570 2114 l-2563 2122 39 19 c21 10 949 422 2063 916 1578 700 2029 896
2045 889 11 -4 634 -244 1385 -532z m-8540 -5356 c514 -753 825 -1218 825
-1232 -1 -34 -1699 -9138 -1705 -9138 -11 1 -3162 8922 -3154 8930 24 24 3200
2650 3204 2649 3 0 376 -544 830 -1209z m6080 -110 c866 -716 1584 -1311 1594
-1321 19 -18 -9 -99 -1560 -4478 -868 -2453 -1582 -4457 -1585 -4453 -3 4
-389 2063 -858 4575 l-851 4569 29 41 c230 339 1556 2279 1588 2325 31 43 48
60 56 54 7 -5 721 -595 1587 -1312z"/>
</g>
</svg>
