<svg xmlns="http://www.w3.org/2000/svg" xmlns:xlink="http://www.w3.org/1999/xlink" width="200" zoomAndPan="magnify" viewBox="0 0 150 37.5" height="50" preserveAspectRatio="xMidYMid meet" version="1.0"><defs><g/></defs><g fill="#112d4e" fill-opacity="1"><g transform="translate(2.55261, 27.526313)"><g><path d="M 1.4375 -1.265625 L 1.4375 -22.984375 L 6.203125 -22.984375 C 9.472656 -22.984375 11.734375 -22.894531 12.984375 -22.71875 C 14.242188 -22.539062 15.28125 -22.175781 16.09375 -21.625 C 16.601562 -21.257812 17.023438 -20.753906 17.359375 -20.109375 C 17.597656 -19.648438 17.738281 -19.304688 17.78125 -19.078125 C 17.832031 -18.847656 17.859375 -18.421875 17.859375 -17.796875 C 17.859375 -16.878906 17.726562 -16.15625 17.46875 -15.625 C 17.25 -15.144531 16.925781 -14.6875 16.5 -14.25 C 16.082031 -13.820312 15.648438 -13.488281 15.203125 -13.25 C 14.835938 -13.082031 14.644531 -12.972656 14.625 -12.921875 C 14.625 -12.898438 14.691406 -12.851562 14.828125 -12.78125 C 15.835938 -12.363281 16.578125 -11.96875 17.046875 -11.59375 C 17.523438 -11.226562 17.921875 -10.707031 18.234375 -10.03125 C 18.441406 -9.625 18.578125 -9.285156 18.640625 -9.015625 C 18.703125 -8.753906 18.734375 -8.335938 18.734375 -7.765625 C 18.734375 -7.585938 18.734375 -7.414062 18.734375 -7.25 C 18.734375 -5.6875 18.300781 -4.414062 17.4375 -3.4375 C 16.570312 -2.46875 15.148438 -1.816406 13.171875 -1.484375 C 12.398438 -1.335938 10.25 -1.265625 6.71875 -1.265625 Z M 11.625 -18.484375 C 11.3125 -18.628906 10.988281 -18.722656 10.65625 -18.765625 C 10.332031 -18.816406 9.664062 -18.851562 8.65625 -18.875 L 6.359375 -18.90625 L 6.359375 -14.046875 L 7.546875 -14.15625 C 8.941406 -14.269531 10.117188 -14.582031 11.078125 -15.09375 C 12.046875 -15.613281 12.578125 -16.210938 12.671875 -16.890625 C 12.671875 -16.960938 12.671875 -17.035156 12.671875 -17.109375 C 12.671875 -17.679688 12.320312 -18.140625 11.625 -18.484375 Z M 11.984375 -9.921875 C 11.503906 -10.066406 10.445312 -10.140625 8.8125 -10.140625 L 6.359375 -10.140625 L 6.359375 -7.6875 C 6.359375 -6.050781 6.40625 -5.207031 6.5 -5.15625 C 6.519531 -5.15625 6.613281 -5.15625 6.78125 -5.15625 C 7.164062 -5.15625 7.878906 -5.171875 8.921875 -5.203125 C 10.265625 -5.273438 11.226562 -5.394531 11.8125 -5.5625 C 12.40625 -5.726562 12.882812 -6.015625 13.25 -6.421875 C 13.65625 -6.878906 13.859375 -7.347656 13.859375 -7.828125 C 13.859375 -8.023438 13.773438 -8.359375 13.609375 -8.828125 C 13.441406 -9.296875 12.898438 -9.660156 11.984375 -9.921875 Z M 11.984375 -9.921875 "/></g></g></g><g fill="#112d4e" fill-opacity="1"><g transform="translate(21.825941, 27.526313)"><g><path d="M 6.03125 -16.78125 C 6.675781 -16.925781 7.382812 -17 8.15625 -17 C 8.207031 -17 8.253906 -17 8.296875 -17 C 10.078125 -17 11.554688 -16.585938 12.734375 -15.765625 C 13.921875 -14.953125 14.71875 -13.75 15.125 -12.15625 C 15.34375 -11.320312 15.453125 -10.382812 15.453125 -9.34375 C 15.453125 -8.9375 15.410156 -8.25 15.328125 -7.28125 C 15.242188 -6.320312 14.972656 -5.375 14.515625 -4.4375 C 13.835938 -3.09375 12.835938 -2.164062 11.515625 -1.65625 C 10.191406 -1.15625 8.988281 -0.90625 7.90625 -0.90625 C 7.207031 -0.90625 6.507812 -0.976562 5.8125 -1.125 C 2.394531 -1.863281 0.6875 -4.390625 0.6875 -8.703125 C 0.6875 -8.960938 0.695312 -9.226562 0.71875 -9.5 C 0.914062 -13.632812 2.6875 -16.0625 6.03125 -16.78125 Z M 9.421875 -12.484375 C 9.054688 -12.679688 8.722656 -12.785156 8.421875 -12.796875 C 8.128906 -12.804688 7.957031 -12.8125 7.90625 -12.8125 C 7.46875 -12.8125 7.109375 -12.738281 6.828125 -12.59375 C 6.578125 -12.5 6.304688 -12.296875 6.015625 -11.984375 C 5.734375 -11.671875 5.546875 -11.367188 5.453125 -11.078125 C 5.234375 -10.503906 5.125 -9.867188 5.125 -9.171875 C 5.125 -8.859375 5.148438 -8.53125 5.203125 -8.1875 C 5.316406 -7.175781 5.601562 -6.441406 6.0625 -5.984375 C 6.519531 -5.535156 7.179688 -5.296875 8.046875 -5.265625 C 9.992188 -5.265625 10.96875 -6.503906 10.96875 -8.984375 C 10.96875 -9.953125 10.847656 -10.707031 10.609375 -11.25 C 10.367188 -11.789062 9.972656 -12.203125 9.421875 -12.484375 Z M 9.421875 -12.484375 "/></g></g></g><g fill="#112d4e" fill-opacity="1"><g transform="translate(37.923122, 27.526313)"><g><path d="M 15.296875 -1.265625 L 13 -1.265625 C 11.84375 -1.265625 11.160156 -1.273438 10.953125 -1.296875 C 10.742188 -1.316406 10.628906 -1.414062 10.609375 -1.59375 C 10.585938 -1.875 10.578125 -2.050781 10.578125 -2.125 C 10.578125 -2.125 10.566406 -2.296875 10.546875 -2.640625 C 10.515625 -2.753906 10.476562 -2.8125 10.4375 -2.8125 C 10.382812 -2.8125 10.332031 -2.789062 10.28125 -2.75 C 10.207031 -2.695312 10.078125 -2.5625 9.890625 -2.34375 C 9.242188 -1.695312 8.570312 -1.28125 7.875 -1.09375 C 7.175781 -0.914062 6.570312 -0.828125 6.0625 -0.828125 C 5.75 -0.828125 5.4375 -0.863281 5.125 -0.9375 C 4.164062 -1.175781 3.378906 -1.582031 2.765625 -2.15625 C 2.148438 -2.738281 1.648438 -3.609375 1.265625 -4.765625 C 0.992188 -5.535156 0.847656 -6.582031 0.828125 -7.90625 C 0.828125 -8.125 0.828125 -8.335938 0.828125 -8.546875 C 0.828125 -11.148438 1.367188 -13.203125 2.453125 -14.703125 C 3.535156 -16.210938 5.160156 -16.976562 7.328125 -17 C 7.398438 -17 7.472656 -17 7.546875 -17 C 8.316406 -17.070312 9.15625 -16.953125 10.0625 -16.640625 L 10.5 -16.5 L 10.5 -24.46875 L 15.296875 -24.46875 Z M 9.921875 -12.671875 C 9.492188 -12.835938 9.097656 -12.929688 8.734375 -12.953125 C 8.367188 -12.984375 8.140625 -13 8.046875 -13 C 7.617188 -13 7.296875 -12.9375 7.078125 -12.8125 C 5.847656 -12.113281 5.234375 -10.835938 5.234375 -8.984375 C 5.253906 -7.734375 5.519531 -6.710938 6.03125 -5.921875 C 6.195312 -5.679688 6.472656 -5.457031 6.859375 -5.25 C 7.242188 -5.039062 7.617188 -4.9375 7.984375 -4.9375 C 8.296875 -4.9375 8.65625 -5.046875 9.0625 -5.265625 C 9.46875 -5.484375 9.816406 -5.738281 10.109375 -6.03125 L 10.5 -6.5625 L 10.5 -12.421875 Z M 9.921875 -12.671875 "/></g></g></g><g fill="#112d4e" fill-opacity="1"><g transform="translate(54.309065, 27.526313)"><g><path d="M 5.59375 -16.640625 C 6.101562 -15.265625 6.414062 -14.457031 6.53125 -14.21875 C 6.75 -13.71875 7 -13.125 7.28125 -12.4375 C 7.570312 -11.75 7.800781 -11.207031 7.96875 -10.8125 C 8.144531 -10.414062 8.253906 -10.15625 8.296875 -10.03125 L 8.59375 -9.34375 L 11.265625 -16.640625 L 16.0625 -16.640625 L 11.90625 -5.953125 C 10.4375 -2.148438 9.484375 0.140625 9.046875 0.921875 C 8.617188 1.703125 8.191406 2.320312 7.765625 2.78125 C 7.035156 3.476562 5.988281 3.882812 4.625 4 C 4.5 4 4.378906 4 4.265625 4 C 3.804688 4 3.234375 3.960938 2.546875 3.890625 C 1.859375 3.828125 1.484375 3.757812 1.421875 3.6875 C 1.359375 3.613281 1.328125 3.503906 1.328125 3.359375 C 1.328125 2.921875 1.425781 2.003906 1.625 0.609375 L 1.703125 0.109375 L 2.484375 0.109375 C 3.359375 0.109375 4.007812 -0.0546875 4.4375 -0.390625 C 4.875 -0.734375 5.304688 -1.394531 5.734375 -2.375 L 6.359375 -3.828125 L 4.4375 -8.046875 L 0.765625 -16.640625 Z M 5.59375 -16.640625 "/></g></g></g><g fill="#112d4e" fill-opacity="1"><g transform="translate(70.983723, 27.526313)"><g><path d="M 5.8125 -16.640625 C 6.269531 -16.753906 6.785156 -16.8125 7.359375 -16.8125 C 7.628906 -16.8125 8.066406 -16.773438 8.671875 -16.703125 C 9.285156 -16.640625 9.929688 -16.453125 10.609375 -16.140625 L 11.1875 -15.84375 L 11.1875 -16.671875 L 15.703125 -16.671875 L 15.703125 -8.515625 C 15.703125 -3.585938 15.65625 -0.832031 15.5625 -0.25 C 15.269531 1.257812 14.550781 2.398438 13.40625 3.171875 C 12.257812 3.941406 10.609375 4.363281 8.453125 4.4375 C 6.878906 4.488281 5.535156 4.335938 4.421875 3.984375 C 3.304688 3.640625 2.488281 3.316406 1.96875 3.015625 C 1.445312 2.710938 1.1875 2.523438 1.1875 2.453125 L 2.53125 -0.65625 C 2.550781 -0.65625 2.570312 -0.65625 2.59375 -0.65625 C 4.445312 0.3125 6.265625 0.796875 8.046875 0.796875 C 10.085938 0.796875 11.125 0.0351562 11.15625 -1.484375 L 11.1875 -3.28125 L 10.359375 -2.703125 C 9.367188 -2.078125 8.226562 -1.765625 6.9375 -1.765625 C 6.738281 -1.765625 6.554688 -1.765625 6.390625 -1.765625 C 4.847656 -1.859375 3.632812 -2.390625 2.75 -3.359375 C 1.664062 -4.515625 1.0625 -5.71875 0.9375 -6.96875 C 0.820312 -8.21875 0.765625 -8.960938 0.765625 -9.203125 C 0.734375 -11.148438 1.175781 -12.773438 2.09375 -14.078125 C 2.5 -14.648438 3.023438 -15.164062 3.671875 -15.625 C 4.328125 -16.082031 5.039062 -16.421875 5.8125 -16.640625 Z M 9.96875 -12.375 C 9.332031 -12.664062 8.753906 -12.8125 8.234375 -12.8125 C 7.941406 -12.8125 7.675781 -12.773438 7.4375 -12.703125 C 6.71875 -12.484375 6.222656 -12.023438 5.953125 -11.328125 C 5.691406 -10.628906 5.5625 -10.003906 5.5625 -9.453125 C 5.5625 -9.023438 5.617188 -8.582031 5.734375 -8.125 C 5.898438 -7.394531 6.210938 -6.828125 6.671875 -6.421875 C 7.128906 -6.015625 7.648438 -5.8125 8.234375 -5.8125 C 8.566406 -5.8125 8.976562 -5.929688 9.46875 -6.171875 C 9.96875 -6.410156 10.375 -6.695312 10.6875 -7.03125 L 11.21875 -7.609375 L 11.1875 -9.640625 C 11.1875 -10.796875 11.140625 -11.46875 11.046875 -11.65625 C 10.953125 -11.851562 10.59375 -12.09375 9.96875 -12.375 Z M 9.96875 -12.375 "/></g></g></g><g fill="#112d4e" fill-opacity="1"><g transform="translate(87.766645, 27.526313)"><g><path d="M 0.796875 -11.265625 L 0.796875 -16.640625 L 5.5625 -16.640625 L 5.59375 -11.796875 C 5.613281 -9.585938 5.640625 -8.195312 5.671875 -7.625 C 5.710938 -7.0625 5.796875 -6.660156 5.921875 -6.421875 C 6.210938 -5.847656 6.554688 -5.53125 6.953125 -5.46875 C 7.347656 -5.40625 7.59375 -5.375 7.6875 -5.375 C 8.238281 -5.375 8.753906 -5.554688 9.234375 -5.921875 C 9.597656 -6.179688 9.832031 -6.421875 9.9375 -6.640625 C 10.050781 -6.859375 10.125 -7.238281 10.15625 -7.78125 C 10.195312 -8.320312 10.21875 -8.796875 10.21875 -9.203125 C 10.21875 -9.847656 10.191406 -10.628906 10.140625 -11.546875 C 10.117188 -12.941406 10.109375 -14.023438 10.109375 -14.796875 C 10.109375 -15.566406 10.117188 -16.023438 10.140625 -16.171875 L 10.25 -16.640625 L 15.015625 -16.640625 L 15.015625 -9.5 C 15.015625 -4.726562 14.988281 -2.160156 14.9375 -1.796875 L 14.828125 -1.265625 L 10.21875 -1.265625 L 10.21875 -3.5 L 9.28125 -2.5625 C 8.601562 -1.882812 8.03125 -1.4375 7.5625 -1.21875 C 7.09375 -1.007812 6.4375 -0.90625 5.59375 -0.90625 C 4.675781 -0.90625 3.988281 -1.015625 3.53125 -1.234375 C 2.832031 -1.546875 2.285156 -1.984375 1.890625 -2.546875 C 1.492188 -3.109375 1.203125 -3.875 1.015625 -4.84375 C 0.867188 -5.5625 0.796875 -7.703125 0.796875 -11.265625 Z M 0.796875 -11.265625 "/></g></g></g><g fill="#112d4e" fill-opacity="1"><g transform="translate(103.683373, 27.526313)"><g><path d="M 10.28125 -7.03125 L 10.28125 -8.1875 L 8.484375 -8.1875 C 7.085938 -8.164062 6.09375 -7.972656 5.5 -7.609375 C 4.914062 -7.253906 4.765625 -6.691406 5.046875 -5.921875 C 5.316406 -5.316406 5.863281 -4.976562 6.6875 -4.90625 C 7.519531 -4.832031 8.382812 -5 9.28125 -5.40625 L 10.28125 -5.921875 Z M 5 -16.703125 C 5.78125 -16.898438 6.859375 -17 8.234375 -17 C 9.410156 -17 10.304688 -16.914062 10.921875 -16.75 C 11.535156 -16.582031 12.09375 -16.34375 12.59375 -16.03125 C 13.53125 -15.40625 14.144531 -14.410156 14.4375 -13.046875 C 14.726562 -11.691406 14.859375 -9.160156 14.828125 -5.453125 L 14.796875 -1.4375 L 10.609375 -1.4375 L 10.6875 -2.234375 L 10.5 -3.0625 L 9.5 -2.421875 C 7.757812 -1.410156 5.953125 -1.070312 4.078125 -1.40625 C 2.878906 -1.625 1.976562 -2.144531 1.375 -2.96875 C 0.769531 -3.800781 0.515625 -4.90625 0.609375 -6.28125 C 0.804688 -8.664062 2.238281 -10.191406 4.90625 -10.859375 C 6.1875 -11.203125 7.609375 -11.359375 9.171875 -11.328125 C 9.765625 -11.328125 10.097656 -11.398438 10.171875 -11.546875 C 10.296875 -11.710938 10.257812 -11.953125 10.0625 -12.265625 C 9.726562 -12.941406 8.832031 -13.265625 7.375 -13.234375 C 5.925781 -13.210938 4.5625 -12.878906 3.28125 -12.234375 L 2.53125 -11.875 L 2.34375 -12.09375 C 2.15625 -12.3125 1.859375 -12.757812 1.453125 -13.4375 C 1.054688 -14.125 0.859375 -14.503906 0.859375 -14.578125 C 0.859375 -14.628906 1.054688 -14.796875 1.453125 -15.078125 C 1.859375 -15.367188 2.300781 -15.648438 2.78125 -15.921875 C 3.476562 -16.253906 4.21875 -16.515625 5 -16.703125 Z M 5 -16.703125 "/></g></g></g><g fill="#112d4e" fill-opacity="1"><g transform="translate(119.636173, 27.526313)"><g><path d="M 8.40625 -16.8125 C 8.695312 -16.957031 9.0625 -17.03125 9.5 -17.03125 C 9.6875 -17.03125 9.898438 -17.019531 10.140625 -17 C 10.378906 -16.976562 10.703125 -16.894531 11.109375 -16.75 L 10.796875 -13.359375 C 10.285156 -13.359375 9.726562 -13.304688 9.125 -13.203125 C 8.570312 -13.109375 8.195312 -13.03125 8 -12.96875 C 7.8125 -12.914062 7.597656 -12.789062 7.359375 -12.59375 C 7.078125 -12.332031 6.800781 -11.945312 6.53125 -11.4375 C 6.269531 -10.9375 6.101562 -10.445312 6.03125 -9.96875 C 5.90625 -9.507812 5.84375 -8.039062 5.84375 -5.5625 L 5.84375 -1.265625 L 1.078125 -1.265625 L 1.078125 -16.640625 L 5.703125 -16.640625 L 5.8125 -13.890625 L 6.28125 -14.6875 C 6.539062 -15.144531 6.867188 -15.570312 7.265625 -15.96875 C 7.671875 -16.363281 8.050781 -16.644531 8.40625 -16.8125 Z M 8.40625 -16.8125 "/></g></g></g><g fill="#112d4e" fill-opacity="1"><g transform="translate(130.969153, 27.526313)"><g><path d="M 15.296875 -1.265625 L 13 -1.265625 C 11.84375 -1.265625 11.160156 -1.273438 10.953125 -1.296875 C 10.742188 -1.316406 10.628906 -1.414062 10.609375 -1.59375 C 10.585938 -1.875 10.578125 -2.050781 10.578125 -2.125 C 10.578125 -2.125 10.566406 -2.296875 10.546875 -2.640625 C 10.515625 -2.753906 10.476562 -2.8125 10.4375 -2.8125 C 10.382812 -2.8125 10.332031 -2.789062 10.28125 -2.75 C 10.207031 -2.695312 10.078125 -2.5625 9.890625 -2.34375 C 9.242188 -1.695312 8.570312 -1.28125 7.875 -1.09375 C 7.175781 -0.914062 6.570312 -0.828125 6.0625 -0.828125 C 5.75 -0.828125 5.4375 -0.863281 5.125 -0.9375 C 4.164062 -1.175781 3.378906 -1.582031 2.765625 -2.15625 C 2.148438 -2.738281 1.648438 -3.609375 1.265625 -4.765625 C 0.992188 -5.535156 0.847656 -6.582031 0.828125 -7.90625 C 0.828125 -8.125 0.828125 -8.335938 0.828125 -8.546875 C 0.828125 -11.148438 1.367188 -13.203125 2.453125 -14.703125 C 3.535156 -16.210938 5.160156 -16.976562 7.328125 -17 C 7.398438 -17 7.472656 -17 7.546875 -17 C 8.316406 -17.070312 9.15625 -16.953125 10.0625 -16.640625 L 10.5 -16.5 L 10.5 -24.46875 L 15.296875 -24.46875 Z M 9.921875 -12.671875 C 9.492188 -12.835938 9.097656 -12.929688 8.734375 -12.953125 C 8.367188 -12.984375 8.140625 -13 8.046875 -13 C 7.617188 -13 7.296875 -12.9375 7.078125 -12.8125 C 5.847656 -12.113281 5.234375 -10.835938 5.234375 -8.984375 C 5.253906 -7.734375 5.519531 -6.710938 6.03125 -5.921875 C 6.195312 -5.679688 6.472656 -5.457031 6.859375 -5.25 C 7.242188 -5.039062 7.617188 -4.9375 7.984375 -4.9375 C 8.296875 -4.9375 8.65625 -5.046875 9.0625 -5.265625 C 9.46875 -5.484375 9.816406 -5.738281 10.109375 -6.03125 L 10.5 -6.5625 L 10.5 -12.421875 Z M 9.921875 -12.671875 "/></g></g></g></svg>