<svg width="200" height="44" viewBox="0 0 200 44" fill="none" xmlns="http://www.w3.org/2000/svg">
<path d="M5.32013 35.0142V6.05591H11.6743C16.0337 6.05591 19.0493 6.1757 20.716 6.41007C22.393 6.64966 23.7785 7.13403 24.8618 7.86841C25.5389 8.35799 26.1014 9.02987 26.5493 9.88924C26.867 10.5038 27.0545 10.9622 27.1118 11.2642C27.1795 11.5715 27.216 12.1392 27.216 12.9726C27.216 14.1965 27.0389 15.1601 26.6951 15.8684C26.4035 16.509 25.9712 17.1184 25.4035 17.7017C24.8462 18.2747 24.268 18.7174 23.6743 19.0351C23.1847 19.259 22.9295 19.4049 22.9035 19.4726C22.9035 19.5038 22.992 19.5663 23.1743 19.6601C24.518 20.2174 25.5076 20.7434 26.1326 21.2434C26.768 21.733 27.2993 22.4257 27.716 23.3267C27.992 23.8684 28.1743 24.3215 28.2576 24.6809C28.341 25.0299 28.3826 25.5872 28.3826 26.3476C28.3826 26.5872 28.3826 26.8163 28.3826 27.0351C28.3826 29.1184 27.8045 30.8163 26.6535 32.1184C25.4972 33.4101 23.6014 34.2799 20.966 34.7226C19.9347 34.9205 17.0701 35.0142 12.3618 35.0142H5.32013ZM18.9035 12.0559C18.4868 11.8632 18.0545 11.7382 17.6118 11.6809C17.1795 11.6132 16.2889 11.5663 14.9451 11.5351L11.8826 11.4934V17.9726L13.466 17.8267C15.3253 17.6757 16.893 17.259 18.1743 16.5767C19.466 15.884 20.1743 15.0872 20.2993 14.1809C20.2993 14.0872 20.2993 13.9882 20.2993 13.8892C20.2993 13.1288 19.8305 12.5142 18.9035 12.0559ZM19.3826 23.4726C18.742 23.2799 17.3305 23.1809 15.1535 23.1809H11.8826V26.4517C11.8826 28.634 11.9451 29.759 12.0701 29.8267C12.0962 29.8267 12.2212 29.8267 12.4451 29.8267C12.9555 29.8267 13.9087 29.8059 15.2993 29.7642C17.091 29.6705 18.3722 29.509 19.1535 29.2851C19.9451 29.0663 20.5805 28.6809 21.0701 28.1392C21.6118 27.5299 21.8826 26.9049 21.8826 26.2642C21.8826 26.0038 21.768 25.5559 21.5493 24.9309C21.3253 24.3059 20.6014 23.8215 19.3826 23.4726Z" fill="white"/>
<path d="M37.1429 14.3267C38.0023 14.134 38.945 14.035 39.9762 14.035C40.044 14.035 40.1065 14.035 40.1637 14.035C42.5387 14.035 44.5075 14.5871 46.0804 15.6809C47.6637 16.7642 48.7262 18.3684 49.2679 20.4934C49.5596 21.608 49.7054 22.858 49.7054 24.2434C49.7054 24.785 49.6481 25.7017 49.5387 26.9934C49.4242 28.2746 49.0648 29.535 48.4554 30.785C47.5492 32.5767 46.2158 33.8163 44.4554 34.4934C42.6898 35.16 41.0856 35.4934 39.6429 35.4934C38.7106 35.4934 37.7783 35.3996 36.8512 35.2017C32.294 34.2173 30.0179 30.8475 30.0179 25.0975C30.0179 24.7538 30.0283 24.3996 30.0596 24.035C30.32 18.5246 32.6846 15.285 37.1429 14.3267ZM41.6637 20.0559C41.1742 19.7955 40.7315 19.6548 40.3304 19.6392C39.9398 19.6288 39.7106 19.6184 39.6429 19.6184C39.0596 19.6184 38.5804 19.7173 38.2054 19.91C37.8721 20.035 37.5075 20.3059 37.1221 20.7225C36.7471 21.1392 36.4971 21.5455 36.3721 21.9309C36.0804 22.6965 35.9346 23.5455 35.9346 24.4725C35.9346 24.8892 35.9658 25.3267 36.0387 25.785C36.1898 27.134 36.57 28.1132 37.1846 28.7225C37.794 29.3215 38.6742 29.6392 39.8304 29.6809C42.4242 29.6809 43.7262 28.0298 43.7262 24.7225C43.7262 23.4309 43.5648 22.4257 43.2471 21.7017C42.9242 20.983 42.3981 20.4309 41.6637 20.0559Z" fill="white"/>
<path d="M70.96 35.0143H67.8975C66.3558 35.0143 65.4444 35.0039 65.1683 34.9726C64.8871 34.9466 64.736 34.8164 64.71 34.5768C64.6788 34.2018 64.6683 33.9674 64.6683 33.8684C64.6683 33.8684 64.6527 33.6393 64.6267 33.1809C64.585 33.0299 64.5329 32.9518 64.4808 32.9518C64.4079 32.9518 64.3402 32.983 64.2725 33.0351C64.1735 33.108 64.0017 33.2851 63.7517 33.5768C62.8871 34.4414 61.9913 34.9934 61.0642 35.2434C60.1319 35.483 59.3246 35.5976 58.6475 35.5976C58.2308 35.5976 57.8142 35.5507 57.3975 35.4518C56.1163 35.1341 55.0694 34.5924 54.2517 33.8268C53.4288 33.0507 52.7621 31.8893 52.2517 30.3476C51.8871 29.3216 51.6944 27.9257 51.6683 26.1601C51.6683 25.8684 51.6683 25.5872 51.6683 25.3059C51.6683 21.8372 52.3871 19.0976 53.835 17.0976C55.2777 15.0872 57.4444 14.0664 60.335 14.0351C60.4288 14.0351 60.5277 14.0351 60.6267 14.0351C61.6527 13.9414 62.7725 14.0976 63.9808 14.5143L64.5642 14.7018V4.07678H70.96V35.0143ZM63.7933 19.8059C63.2204 19.5872 62.6944 19.4622 62.21 19.4309C61.7204 19.3893 61.4183 19.3684 61.2933 19.3684C60.7204 19.3684 60.2933 19.4518 60.0017 19.6184C58.361 20.5507 57.5433 22.2539 57.5433 24.7226C57.5694 26.3893 57.9235 27.7539 58.6058 28.8059C58.8246 29.1289 59.1944 29.4257 59.71 29.7018C60.2204 29.983 60.7204 30.1184 61.21 30.1184C61.6267 30.1184 62.1058 29.9726 62.6475 29.6809C63.1892 29.3893 63.6527 29.0507 64.0433 28.6601L64.5642 27.9518V20.1393L63.7933 19.8059Z" fill="white"/>
<path d="M79.8704 14.5143C80.5475 16.3476 80.9642 17.4257 81.1204 17.7434C81.4121 18.4101 81.7454 19.2018 82.1204 20.1184C82.5058 21.0351 82.8131 21.7591 83.0371 22.2851C83.2715 22.8164 83.4173 23.1601 83.4746 23.3268L83.8704 24.2434L87.4329 14.5143H93.8288L88.2871 28.7643C86.3288 33.8372 85.0579 36.8893 84.4746 37.9309C83.9017 38.9726 83.334 39.7955 82.7663 40.4101C81.7923 41.3372 80.3965 41.8789 78.5788 42.0351C78.4121 42.0351 78.2506 42.0351 78.0996 42.0351C77.485 42.0351 76.7246 41.983 75.8079 41.8893C74.8913 41.8059 74.3913 41.7122 74.3079 41.6184C74.2246 41.5195 74.1829 41.3737 74.1829 41.1809C74.1829 40.5976 74.3131 39.3737 74.5788 37.5143L74.6829 36.8476H75.7246C76.8913 36.8476 77.7558 36.6289 78.3288 36.1809C78.9121 35.7226 79.485 34.8424 80.0579 33.5351L80.8913 31.5976L78.3288 25.9726L73.4329 14.5143H79.8704Z" fill="white"/>
<path d="M102.395 14.5142C103.004 14.3632 103.692 14.285 104.457 14.285C104.817 14.285 105.4 14.3371 106.207 14.4309C107.025 14.5142 107.885 14.7642 108.791 15.1809L109.562 15.5767V14.4725H115.582V25.3475C115.582 31.9205 115.52 35.5923 115.395 36.3684C115.004 38.3788 114.046 39.8996 112.52 40.9309C110.989 41.9569 108.791 42.5194 105.916 42.6184C103.817 42.6861 102.025 42.483 100.541 42.0142C99.0512 41.5559 97.9627 41.1236 97.27 40.7225C96.5721 40.3163 96.2283 40.0663 96.2283 39.9725L98.02 35.8267C98.046 35.8267 98.0721 35.8267 98.1033 35.8267C100.572 37.1184 102.999 37.7642 105.374 37.7642C108.093 37.7642 109.478 36.7486 109.52 34.7225L109.562 32.3267L108.457 33.0975C107.135 33.9309 105.614 34.3475 103.895 34.3475C103.629 34.3475 103.385 34.3475 103.166 34.3475C101.109 34.2225 99.4887 33.5142 98.3117 32.2225C96.8637 30.6809 96.0617 29.0767 95.895 27.41C95.7387 25.7434 95.6658 24.7538 95.6658 24.4309C95.6242 21.8371 96.2127 19.6705 97.4367 17.9309C97.9783 17.1705 98.6762 16.483 99.5408 15.8684C100.416 15.259 101.364 14.8059 102.395 14.5142ZM107.937 20.2017C107.088 19.8163 106.317 19.6184 105.624 19.6184C105.234 19.6184 104.879 19.6705 104.562 19.7642C103.603 20.0559 102.942 20.6705 102.582 21.5975C102.234 22.5298 102.062 23.3632 102.062 24.0975C102.062 24.6705 102.135 25.259 102.291 25.8684C102.51 26.8423 102.926 27.5975 103.541 28.1392C104.15 28.6809 104.843 28.9517 105.624 28.9517C106.067 28.9517 106.614 28.7955 107.27 28.4725C107.937 28.1548 108.478 27.7746 108.895 27.3267L109.603 26.5559L109.562 23.8475C109.562 22.3059 109.499 21.41 109.374 21.16C109.249 20.8996 108.77 20.5767 107.937 20.2017Z" fill="white"/>
<path d="M118.085 21.6809V14.5143H124.439L124.481 20.9726C124.507 23.9205 124.543 25.7747 124.585 26.5351C124.637 27.2851 124.751 27.8216 124.918 28.1393C125.303 28.9049 125.762 29.3268 126.293 29.4101C126.819 29.4934 127.147 29.5351 127.272 29.5351C128.007 29.5351 128.694 29.2955 129.335 28.8059C129.819 28.4622 130.132 28.1393 130.272 27.8476C130.423 27.5559 130.522 27.0507 130.564 26.3268C130.616 25.608 130.647 24.9726 130.647 24.4309C130.647 23.5716 130.611 22.5299 130.543 21.3059C130.512 19.4466 130.501 18.0039 130.501 16.9726C130.501 15.9466 130.512 15.3372 130.543 15.1393L130.689 14.5143H137.043V24.0351C137.043 30.3997 137.007 33.8216 136.939 34.3059L136.793 35.0143H130.647V32.0351L129.397 33.2851C128.491 34.1914 127.731 34.7851 127.106 35.0768C126.481 35.358 125.606 35.4934 124.481 35.4934C123.257 35.4934 122.34 35.3476 121.731 35.0559C120.798 34.6393 120.069 34.0559 119.543 33.3059C119.012 32.5559 118.626 31.5351 118.376 30.2434C118.178 29.2851 118.085 26.4309 118.085 21.6809Z" fill="white"/>
<path d="M151.953 27.3267V25.785H149.557C147.692 25.8163 146.37 26.0715 145.578 26.5559C144.797 27.0298 144.599 27.7798 144.974 28.8059C145.333 29.6132 146.062 30.0663 147.161 30.16C148.271 30.259 149.422 30.035 150.62 29.4934L151.953 28.8059V27.3267ZM144.911 14.4309C145.953 14.1705 147.39 14.035 149.224 14.035C150.791 14.035 151.984 14.1496 152.807 14.3684C153.625 14.5923 154.37 14.91 155.036 15.3267C156.286 16.16 157.104 17.4882 157.495 19.3059C157.88 21.1132 158.057 24.4882 158.015 29.4309L157.974 34.785H152.39L152.495 33.7225L152.245 32.6184L150.911 33.4725C148.588 34.8215 146.182 35.2746 143.682 34.8267C142.083 34.535 140.88 33.8423 140.078 32.7434C139.271 31.634 138.932 30.16 139.057 28.3267C139.317 25.1496 141.229 23.1132 144.786 22.2225C146.495 21.7642 148.39 21.5559 150.474 21.5975C151.265 21.5975 151.708 21.5038 151.807 21.3059C151.974 21.0871 151.922 20.7642 151.661 20.3475C151.213 19.4465 150.021 19.0142 148.078 19.0559C146.146 19.0871 144.328 19.5298 142.62 20.3892L141.62 20.8684L141.37 20.5767C141.12 20.285 140.724 19.6913 140.182 18.785C139.651 17.8684 139.39 17.3632 139.39 17.2642C139.39 17.1965 139.651 16.9725 140.182 16.5975C140.724 16.2121 141.312 15.8371 141.953 15.4725C142.88 15.0298 143.87 14.6809 144.911 14.4309Z" fill="white"/>
<path d="M170.723 14.2851C171.109 14.0924 171.598 13.9934 172.182 13.9934C172.432 13.9934 172.713 14.009 173.036 14.0351C173.353 14.0663 173.786 14.1757 174.327 14.3684L173.911 18.8892C173.228 18.8892 172.484 18.9622 171.682 19.0976C170.942 19.2226 170.442 19.3267 170.182 19.4101C169.932 19.483 169.645 19.6497 169.327 19.9101C168.952 20.259 168.583 20.7747 168.223 21.4517C167.874 22.1184 167.65 22.7747 167.557 23.4101C167.39 24.0247 167.307 25.983 167.307 29.2851V35.0142H160.952V14.5142H167.119L167.265 18.1809L167.89 17.1184C168.234 16.509 168.671 15.9413 169.202 15.4101C169.744 14.884 170.249 14.509 170.723 14.2851Z" fill="white"/>
<path d="M195.021 35.0143H191.959C190.417 35.0143 189.506 35.0039 189.23 34.9726C188.948 34.9466 188.797 34.8164 188.771 34.5768C188.74 34.2018 188.73 33.9674 188.73 33.8684C188.73 33.8684 188.714 33.6393 188.688 33.1809C188.646 33.0299 188.594 32.9518 188.542 32.9518C188.469 32.9518 188.402 32.983 188.334 33.0351C188.235 33.108 188.063 33.2851 187.813 33.5768C186.948 34.4414 186.053 34.9934 185.126 35.2434C184.193 35.483 183.386 35.5976 182.709 35.5976C182.292 35.5976 181.876 35.5507 181.459 35.4518C180.178 35.1341 179.131 34.5924 178.313 33.8268C177.49 33.0507 176.823 31.8893 176.313 30.3476C175.948 29.3216 175.756 27.9257 175.73 26.1601C175.73 25.8684 175.73 25.5872 175.73 25.3059C175.73 21.8372 176.448 19.0976 177.896 17.0976C179.339 15.0872 181.506 14.0664 184.396 14.0351C184.49 14.0351 184.589 14.0351 184.688 14.0351C185.714 13.9414 186.834 14.0976 188.042 14.5143L188.626 14.7018V4.07678H195.021V35.0143ZM187.855 19.8059C187.282 19.5872 186.756 19.4622 186.271 19.4309C185.782 19.3893 185.48 19.3684 185.355 19.3684C184.782 19.3684 184.355 19.4518 184.063 19.6184C182.422 20.5507 181.605 22.2539 181.605 24.7226C181.631 26.3893 181.985 27.7539 182.667 28.8059C182.886 29.1289 183.256 29.4257 183.771 29.7018C184.282 29.983 184.782 30.1184 185.271 30.1184C185.688 30.1184 186.167 29.9726 186.709 29.6809C187.251 29.3893 187.714 29.0507 188.105 28.6601L188.626 27.9518V20.1393L187.855 19.8059Z" fill="white"/>
</svg>
