<?xml version="1.0" standalone="no"?>
<!DOCTYPE svg PUBLIC "-//W3C//DTD SVG 20010904//EN"
 "http://www.w3.org/TR/2001/REC-SVG-20010904/DTD/svg10.dtd">
<svg version="1.0" xmlns="http://www.w3.org/2000/svg"
 width="1299.000000pt" height="1299.000000pt" viewBox="0 0 1299.000000 1299.000000"
 preserveAspectRatio="xMidYMid meet">

<g transform="translate(0.000000,1299.000000) scale(0.100000,-0.100000)"
fill="#112d4e" stroke="none">
<path d="M7830 8424 c-393 -49 -813 -229 -1092 -468 -214 -183 -297 -374 -206
-473 64 -69 153 -26 433 206 278 231 446 339 610 392 98 31 383 38 615 14 472
-48 962 -173 1127 -286 l44 -31 123 41 c248 82 524 143 806 177 157 19 607 26
710 11 123 -18 30 5 -210 52 -845 167 -1667 294 -2250 346 -170 15 -639 28
-710 19z"/>
<path d="M1438 7949 c-29 -28 -30 -33 -25 -86 20 -190 380 -698 863 -1217 216
-233 438 -421 488 -414 21 3 21 8 22 298 1 162 5 345 8 405 l6 110 -87 45
c-206 106 -430 273 -768 570 -220 193 -310 264 -380 296 -66 31 -91 30 -127
-7z"/>
<path d="M10525 7960 c-698 -41 -1391 -265 -2044 -659 l-153 -93 -113 -18
c-289 -47 -513 -46 -631 3 -262 110 -830 214 -1414 259 -213 16 -913 16 -1130
0 -459 -35 -837 -87 -1259 -173 -350 -72 -894 -217 -917 -245 -25 -31 -46
-448 -34 -648 14 -218 12 -210 73 -226 130 -32 256 -116 320 -213 48 -71 70
-143 102 -322 75 -425 186 -735 343 -954 119 -166 301 -325 472 -411 229 -116
561 -172 885 -150 442 30 993 164 1355 329 252 115 447 248 625 426 276 275
420 546 614 1159 l76 239 70 44 c104 64 212 103 285 103 51 0 64 -4 91 -28 27
-24 32 -37 36 -83 21 -286 47 -434 105 -598 106 -300 292 -523 529 -636 173
-82 398 -111 626 -81 463 61 887 278 1149 587 221 260 350 547 464 1033 56
242 63 263 119 351 21 33 55 92 75 130 20 39 45 81 56 95 13 16 27 65 40 140
28 162 79 564 71 572 -9 11 -222 46 -341 57 -164 15 -392 20 -545 11z m176
-280 c34 -9 40 -17 74 -96 54 -126 102 -279 132 -423 24 -114 27 -147 27 -336
0 -180 -3 -224 -22 -312 -77 -352 -274 -671 -575 -929 -192 -165 -391 -285
-567 -344 -511 -170 -856 -113 -1038 169 -96 147 -131 292 -139 561 -7 257 17
483 73 680 146 511 635 874 1354 1004 80 14 188 30 240 35 115 12 391 6 441
-9z m-4441 -560 c244 -21 407 -62 570 -142 138 -68 248 -173 303 -288 55 -115
67 -196 67 -437 0 -292 -23 -455 -95 -671 -186 -558 -626 -940 -1259 -1093
-89 -22 -197 -50 -241 -64 -429 -130 -831 -144 -1143 -39 -351 117 -601 409
-707 824 -9 36 -29 99 -45 140 -94 249 -102 571 -18 785 114 292 328 502 683
670 271 129 570 207 1050 275 347 48 598 60 835 40z"/>
<path d="M10275 7633 c-395 -33 -794 -159 -1051 -332 -295 -197 -463 -437
-529 -756 -38 -182 -49 -291 -50 -485 0 -181 18 -354 36 -348 7 2 603 637
1701 1811 l110 117 -88 -2 c-49 -1 -107 -3 -129 -5z"/>
<path d="M10476 7557 c-29 -45 -375 -579 -770 -1186 -394 -607 -716 -1105
-716 -1106 0 -2 28 -13 63 -24 82 -29 247 -47 310 -35 l48 9 580 1095 c319
602 605 1141 635 1198 62 117 64 113 -44 125 l-53 6 -53 -82z"/>
<path d="M10697 7524 c-8 -16 -286 -539 -616 -1163 -331 -624 -599 -1136 -597
-1138 8 -8 219 48 323 86 198 73 411 218 604 410 178 177 294 348 374 549 134
339 136 696 5 1092 -23 68 -49 139 -59 159 l-18 35 -16 -30z"/>
<path d="M5640 7044 c-657 -71 -1129 -208 -1440 -415 -110 -73 -258 -216 -320
-308 -54 -81 -103 -187 -132 -287 -20 -69 -23 -101 -23 -254 0 -191 4 -214 65
-405 21 -66 52 -166 69 -222 38 -123 112 -273 182 -367 l51 -69 30 31 c17 16
509 540 1093 1164 l1061 1133 -35 7 c-61 12 -470 6 -601 -8z"/>
<path d="M5478 5737 c-467 -718 -848 -1310 -848 -1315 0 -24 309 -51 431 -38
l65 7 711 1287 c392 708 715 1294 718 1304 5 13 -6 19 -67 33 -40 9 -93 19
-118 22 l-45 5 -847 -1305z"/>
<path d="M6566 6882 c-402 -720 -1366 -2475 -1362 -2480 10 -9 232 38 353 74
61 18 156 43 210 55 246 53 530 175 710 304 187 136 377 363 473 567 124 265
177 551 165 888 -10 275 -43 367 -175 500 -74 75 -176 138 -279 175 l-40 14
-55 -97z"/>
<path d="M1417 7688 c22 -204 121 -488 243 -702 176 -308 262 -252 143 93 -14
42 -35 82 -45 90 -56 39 -211 287 -298 476 -22 47 -41 85 -44 85 -2 0 -2 -19
1 -42z"/>
</g>
</svg>
