<?xml version="1.0" standalone="no"?>
<!DOCTYPE svg PUBLIC "-//W3C//DTD SVG 20010904//EN"
 "http://www.w3.org/TR/2001/REC-SVG-20010904/DTD/svg10.dtd">
<svg version="1.0" xmlns="http://www.w3.org/2000/svg"
 width="1300.000000pt" height="1300.000000pt" viewBox="0 0 1300.000000 1300.000000"
 preserveAspectRatio="xMidYMid meet">

<g transform="translate(0.000000,1300.000000) scale(0.100000,-0.100000)"
fill="#ffffff" stroke="none">
<path d="M4927 12020 c-99 -25 -198 -104 -236 -190 -20 -45 -21 -59 -21 -1622
l0 -1577 -57 -16 c-279 -81 -491 -328 -533 -620 -8 -59 -10 -970 -8 -3390 3
-3166 4 -3313 22 -3370 81 -266 258 -448 521 -537 l70 -23 1760 -3 c1582 -2
1768 -1 1840 13 293 59 516 275 586 570 19 81 19 139 17 3431 l-3 3349 -23 70
c-71 211 -201 364 -387 456 -83 41 -214 79 -272 79 l-33 0 0 265 0 265 -500 0
-500 0 0 -260 0 -260 -170 0 -170 0 0 260 0 260 -505 0 -505 0 0 -260 0 -260
-220 0 -220 0 0 1555 0 1554 -22 58 c-28 77 -105 153 -185 183 -65 25 -186 35
-246 20z m3443 -5540 l0 -1430 -1890 0 -1890 0 0 1430 0 1430 1890 0 1890 0 0
-1430z m-2690 -2340 l0 -450 -455 0 -455 0 0 450 0 450 455 0 455 0 0 -450z
m1250 0 l0 -450 -450 0 -450 0 0 450 0 450 450 0 450 0 0 -450z m1260 0 l0
-450 -450 0 -450 0 0 450 0 450 450 0 450 0 0 -450z m-2510 -1140 l0 -450
-455 0 -455 0 0 450 0 450 455 0 455 0 0 -450z m1250 0 l0 -450 -450 0 -450 0
0 450 0 450 450 0 450 0 0 -450z m1260 0 l0 -450 -450 0 -450 0 0 450 0 450
450 0 450 0 0 -450z m-2510 -1140 l0 -450 -455 0 -455 0 0 450 0 450 455 0
455 0 0 -450z m1250 0 l0 -450 -450 0 -450 0 0 450 0 450 450 0 450 0 0 -450z
m1260 0 l0 -450 -450 0 -450 0 0 450 0 450 450 0 450 0 0 -450z"/>
</g>
</svg>
