<?xml version="1.0" standalone="no"?>
<!DOCTYPE svg PUBLIC "-//W3C//DTD SVG 20010904//EN"
 "http://www.w3.org/TR/2001/REC-SVG-20010904/DTD/svg10.dtd">
<svg version="1.0" xmlns="http://www.w3.org/2000/svg"
 width="1300.000000pt" height="1300.000000pt" viewBox="0 0 1300.000000 1300.000000"
 preserveAspectRatio="xMidYMid meet">

<g transform="translate(0.000000,1300.000000) scale(0.100000,-0.100000)"
fill="#3f72af" stroke="none">
<path d="M7785 10884 c-315 -36 -511 -92 -755 -214 -180 -91 -378 -229 -485
-339 l-39 -41 116 -116 115 -116 89 77 c623 540 1532 565 2179 59 44 -34 96
-78 114 -98 19 -20 40 -36 46 -36 6 0 62 52 125 116 l115 115 -55 50 c-341
311 -748 493 -1199 539 -96 9 -297 11 -366 4z"/>
<path d="M7775 10254 c-300 -45 -561 -165 -780 -359 l-50 -44 119 -120 120
-120 45 42 c232 215 586 318 902 262 202 -35 383 -121 540 -256 l55 -48 118
118 118 118 -64 57 c-177 160 -405 274 -658 331 -73 16 -394 29 -465 19z"/>
<path d="M7804 9615 c-40 -7 -89 -18 -110 -25 -65 -21 -186 -87 -248 -136
l-58 -46 117 -118 118 -118 62 43 c91 62 151 80 265 80 116 0 199 -26 279 -86
l54 -41 116 117 116 116 -49 45 c-158 145 -424 213 -662 169z"/>
<path d="M7500 7960 l0 -810 -70 0 -70 0 0 295 0 295 -485 0 -485 0 0 -295 0
-295 -70 0 -70 0 0 295 0 295 -485 0 -485 0 0 -295 0 -295 -225 0 -225 0 0
-285 0 -285 -300 0 -300 0 0 -1020 0 -1020 300 0 300 0 0 -1745 0 -1745 1980
0 1980 0 0 3050 0 3050 -160 0 -160 0 0 810 0 810 -485 0 -485 0 0 -810z m638
363 l-3 -118 -150 0 -150 0 -3 118 -3 117 156 0 156 0 -3 -117z m2 -813 l0
-360 -155 0 -155 0 0 360 0 360 155 0 155 0 0 -360z m-2220 -230 l0 -130 -150
0 -150 0 0 130 0 130 150 0 150 0 0 -130z m1110 0 l0 -130 -155 0 -155 0 0
130 0 130 155 0 155 0 0 -130z m1428 -3182 l2 -2718 -1645 0 -1645 0 0 2720 0
2720 1643 -2 1642 -3 3 -2717z m-3628 1462 l0 -690 -135 0 -135 0 0 683 c0
376 3 687 7 690 3 4 64 7 135 7 l128 0 0 -690z"/>
<path d="M5560 5485 l0 -945 1250 0 1250 0 0 945 0 945 -1250 0 -1250 0 0
-945z m2170 -5 l0 -610 -920 0 -920 0 0 610 0 610 920 0 920 0 0 -610z"/>
<path d="M5700 3885 l0 -165 1110 0 1110 0 0 165 0 165 -1110 0 -1110 0 0
-165z"/>
<path d="M5700 3275 l0 -165 1110 0 1110 0 0 165 0 165 -1110 0 -1110 0 0
-165z"/>
<path d="M5700 2660 l0 -170 1110 0 1110 0 0 170 0 170 -1110 0 -1110 0 0
-170z"/>
<path d="M5700 2045 l0 -165 1110 0 1110 0 0 165 0 165 -1110 0 -1110 0 0
-165z"/>
</g>
</svg>
